<svg width="73" height="48" viewBox="0 0 73 48" fill="none" xmlns="http://www.w3.org/2000/svg">
    <path d="M21.7384 17.0935C19.3902 17.0935 17.5427 18.4403 17.5427 20.5985C17.5427 22.7913 19.0276 23.6547 21.5312 24.2072L21.6866 24.2417C23.275 24.587 24.1729 24.9324 24.1729 25.9856C24.1729 26.8834 23.4822 27.6604 22.0146 27.6604C20.1844 27.6604 19.3384 26.659 19.3384 25.1741V24.8633H17.0938V25.2431C17.0938 28.0748 18.993 29.6633 21.9455 29.6633C24.5182 29.6633 26.4175 28.2993 26.4175 25.8647C26.4175 23.6719 24.9499 22.7913 22.4635 22.2388L22.3081 22.2043C20.8578 21.8762 19.7873 21.669 19.7873 20.5295C19.7873 19.7007 20.5297 19.0964 21.7384 19.0964C23.1196 19.0964 24.0002 19.7007 24.0002 21.082V21.4446H26.2103V20.9266C26.2103 18.5093 24.3283 17.0935 21.7384 17.0935Z" fill="#111111"/>
    <path d="M27.4796 25.1396C27.4796 27.7985 29.448 29.6633 31.9343 29.6633C34.3343 29.6633 35.8365 28.3338 36.2509 26.3827L34.1098 25.8475C33.8854 26.9698 33.2811 27.7295 31.9688 27.7295C30.5703 27.7295 29.6552 26.6935 29.6552 25.1396C29.6552 23.5856 30.6566 22.5496 31.9688 22.5496C33.2811 22.5496 33.9545 23.4129 34.1098 24.4489L36.2509 23.8964C35.8019 21.9453 34.317 20.6158 31.9343 20.6158C29.448 20.6158 27.4796 22.4806 27.4796 25.1396Z" fill="#111111"/>
    <path d="M37.0738 25.1396C37.0738 27.8331 39.0422 29.6633 41.563 29.6633C44.0839 29.6633 46.0523 27.8331 46.0523 25.1396C46.0523 22.446 44.0839 20.6158 41.563 20.6158C39.0422 20.6158 37.0738 22.446 37.0738 25.1396ZM39.2494 25.1396C39.2494 23.5856 40.1817 22.5496 41.563 22.5496C42.9443 22.5496 43.8767 23.5856 43.8767 25.1396C43.8767 26.6935 42.9443 27.7295 41.563 27.7295C40.1817 27.7295 39.2494 26.6935 39.2494 25.1396Z" fill="#111111"/>
    <path d="M55.795 29.4216V20.8575H53.6194V25.2777C53.6194 26.7971 52.877 27.6604 51.4784 27.6604C50.2353 27.6604 49.5446 26.9525 49.5446 25.7611V20.8575H47.3691V25.9683C47.3691 28.1957 48.8022 29.5597 50.7014 29.5597C52.2727 29.5597 53.0669 28.8345 53.4122 28.0403H53.654V29.4216H55.795Z" fill="#111111"/>
    <path d="M56.8266 20.8575V22.7223H59.0022V27.764C59.0022 28.7309 59.7273 29.4216 60.6942 29.4216H63.0424V27.5568H61.6612C61.3504 27.5568 61.1777 27.3842 61.1777 27.0388V22.7223H63.5259V20.8575H61.1777V18.1985H59.0022V20.8575H56.8266Z" fill="#111111"/>
    <path fill-rule="evenodd" clip-rule="evenodd" d="M8.97852 8.97839H63.5397V10.8777H10.8778V37.1223H63.5397V39.0216H8.97852V8.97839Z" fill="#111111"/>
    </svg>
