<svg width="210" height="139" viewBox="0 0 210 139" fill="none" xmlns="http://www.w3.org/2000/svg">
    <path d="M62.95 49.5C56.15 49.5 50.8 53.4 50.8 59.65C50.8 66 55.1 68.5 62.35 70.1L62.8 70.2C67.4 71.2 70 72.2 70 75.25C70 77.85 68 80.1 63.75 80.1C58.45 80.1 56 77.2 56 72.9V72H49.5V73.1C49.5 81.3 55 85.9 63.55 85.9C71 85.9 76.5 81.95 76.5 74.9C76.5 68.55 72.25 66 65.05 64.4L64.6 64.3C60.4 63.35 57.3 62.75 57.3 59.45C57.3 57.05 59.45 55.3 62.95 55.3C66.95 55.3 69.5 57.05 69.5 61.05V62.1H75.9V60.6C75.9 53.6 70.45 49.5 62.95 49.5Z" fill="white"/>
    <path d="M79.5758 72.8C79.5758 80.5 85.2758 85.9 92.4758 85.9C99.4258 85.9 103.776 82.05 104.976 76.4L98.7758 74.85C98.1258 78.1 96.3758 80.3 92.5758 80.3C88.5258 80.3 85.8758 77.3 85.8758 72.8C85.8758 68.3 88.7758 65.3 92.5758 65.3C96.3758 65.3 98.3258 67.8 98.7758 70.8L104.976 69.2C103.676 63.55 99.3758 59.7 92.4758 59.7C85.2758 59.7 79.5758 65.1 79.5758 72.8Z" fill="white"/>
    <path d="M107.359 72.8C107.359 80.6 113.059 85.9 120.359 85.9C127.659 85.9 133.359 80.6 133.359 72.8C133.359 65 127.659 59.7 120.359 59.7C113.059 59.7 107.359 65 107.359 72.8ZM113.659 72.8C113.659 68.3 116.359 65.3 120.359 65.3C124.359 65.3 127.059 68.3 127.059 72.8C127.059 77.3 124.359 80.3 120.359 80.3C116.359 80.3 113.659 77.3 113.659 72.8Z" fill="white"/>
    <path d="M161.572 85.2V60.4H155.272V73.2C155.272 77.6 153.122 80.1 149.072 80.1C145.472 80.1 143.472 78.05 143.472 74.6V60.4H137.172V75.2C137.172 81.65 141.322 85.6 146.822 85.6C151.372 85.6 153.672 83.5 154.672 81.2H155.372V85.2H161.572Z" fill="white"/>
    <path d="M164.56 60.4V65.8H170.86V80.4C170.86 83.2 172.96 85.2 175.76 85.2H182.56V79.8H178.56C177.66 79.8 177.16 79.3 177.16 78.3V65.8H183.96V60.4H177.16V52.7H170.86V60.4H164.56Z" fill="white"/>
    <path fill-rule="evenodd" clip-rule="evenodd" d="M26 26H184V31.5H31.5V107.5H184V113H26V26Z" fill="white"/>
    </svg>
