<svg width="24" height="24" viewBox="0 0 24 24" fill="none" xmlns="http://www.w3.org/2000/svg">
<path d="M0 12C0 5.37258 5.37258 0 12 0C18.6274 0 24 5.37258 24 12C24 18.6274 18.6274 24 12 24C5.37258 24 0 18.6274 0 12Z" fill="white"/>
<path d="M12.0002 7.09333C13.5024 7.09333 14.5157 7.74222 15.0935 8.28444L17.3513 6.08C15.9646 4.79111 14.1602 4 12.0002 4C8.87129 4 6.16907 5.79555 4.85352 8.40889L7.44018 10.4178C8.08907 8.48889 9.88463 7.09333 12.0002 7.09333Z" fill="#EA4335"/>
<path d="M19.68 12.1778C19.68 11.52 19.6267 11.04 19.5111 10.5422H12V13.5111H16.4089C16.32 14.2489 15.84 15.36 14.7733 16.1067L17.2978 18.0622C18.8089 16.6667 19.68 14.6133 19.68 12.1778Z" fill="#4285F4"/>
<path d="M7.44889 13.5822C7.28 13.0844 7.18222 12.5511 7.18222 12C7.18222 11.4489 7.28 10.9155 7.44 10.4178L4.85333 8.40887C4.31111 9.49332 4 10.7111 4 12C4 13.2889 4.31111 14.5067 4.85333 15.5911L7.44889 13.5822Z" fill="#FBBC05"/>
<path d="M12.0001 20C14.1601 20 15.9734 19.2889 17.2979 18.0622L14.7734 16.1067C14.0979 16.5778 13.1912 16.9067 12.0001 16.9067C9.88452 16.9067 8.08897 15.5111 7.44897 13.5822L4.8623 15.5911C6.17786 18.2044 8.87119 20 12.0001 20Z" fill="#34A853"/>
</svg>
