<svg width="32" height="32" viewBox="0 0 32 32" fill="none" xmlns="http://www.w3.org/2000/svg">
<path fill-rule="evenodd" clip-rule="evenodd" d="M16 1C21.5228 1 26 5.47715 26 11C26 15.5427 19.2347 26.9333 16.8333 30.5533C16.6481 30.8326 16.3352 31.0006 16 31.0006C15.6648 31.0006 15.3519 30.8326 15.1667 30.5533C12.7653 26.9333 6 15.5427 6 11C6 5.47715 10.4772 1 16 1ZM16 16C18.7614 16 21 13.7614 21 11C21 8.23858 18.7614 6 16 6C13.2386 6 11 8.23858 11 11C11 13.7614 13.2386 16 16 16Z" fill="#F25252"/>
<path fill-rule="evenodd" clip-rule="evenodd" d="M16 16C18.7614 16 21 13.7614 21 11C21 8.23858 18.7614 6 16 6C13.2386 6 11 8.23858 11 11C11 13.7614 13.2386 16 16 16Z" stroke="#111111" stroke-width="1.5" stroke-linecap="round" stroke-linejoin="round"/>
<path fill-rule="evenodd" clip-rule="evenodd" d="M16 1C21.5228 1 26 5.47715 26 11C26 15.5427 19.2347 26.9333 16.8333 30.5533C16.6481 30.8326 16.3352 31.0006 16 31.0006C15.6648 31.0006 15.3519 30.8326 15.1667 30.5533C12.7653 26.9333 6 15.5427 6 11C6 5.47715 10.4772 1 16 1Z" stroke="#111111" stroke-width="1.5" stroke-linecap="round" stroke-linejoin="round"/>
</svg>
