<svg width="24" height="24" viewBox="0 0 24 24" fill="none" xmlns="http://www.w3.org/2000/svg">
    <path fill-rule="evenodd" clip-rule="evenodd" d="M12 9.75403C13.2426 9.75403 14.25 8.74667 14.25 7.50403C14.25 6.26139 13.2426 5.25403 12 5.25403C10.7574 5.25403 9.75 6.26139 9.75 7.50403C9.75 8.74667 10.7574 9.75403 12 9.75403Z" stroke="black" stroke-width="1.5" stroke-linecap="round" stroke-linejoin="round"/>
    <path fill-rule="evenodd" clip-rule="evenodd" d="M7.5 15.754C7.5 13.2687 9.51472 11.254 12 11.254C14.4853 11.254 16.5 13.2687 16.5 15.754H7.5Z" stroke="#111111" stroke-width="1.5" stroke-linecap="round" stroke-linejoin="round"/>
    <path fill-rule="evenodd" clip-rule="evenodd" d="M21 9.75403C21 17.654 14.068 22.085 12.371 23.054C12.1408 23.1855 11.8582 23.1855 11.628 23.054C9.931 22.084 3 17.652 3 9.75403C3 4.78347 7.02944 0.754028 12 0.754028C16.9706 0.754028 21 4.78347 21 9.75403V9.75403Z" stroke="#111111" stroke-width="1.5" stroke-linecap="round" stroke-linejoin="round"/>
    </svg>
