<svg width="24" height="24" viewBox="0 0 24 24" fill="none" xmlns="http://www.w3.org/2000/svg">
    <path d="M12 12.754V9.75403" stroke="#111111" stroke-width="1.5" stroke-linecap="round" stroke-linejoin="round"/>
    <path d="M12 7.565C12.2071 7.565 12.375 7.39711 12.375 7.19" stroke="#111111" stroke-width="1.5" stroke-linecap="round" stroke-linejoin="round"/>
    <path d="M11.625 7.19C11.625 7.39711 11.7929 7.565 12 7.565" stroke="black" stroke-width="1.5" stroke-linecap="round" stroke-linejoin="round"/>
    <path d="M12 6.815C11.9005 6.81474 11.8049 6.85416 11.7345 6.92454C11.6642 6.99493 11.6247 7.09047 11.625 7.19" stroke="black" stroke-width="1.5" stroke-linecap="round" stroke-linejoin="round"/>
    <path d="M12.375 7.19C12.3753 7.09047 12.3358 6.99493 12.2655 6.92454C12.1951 6.85416 12.0995 6.81474 12 6.815" stroke="black" stroke-width="1.5" stroke-linecap="round" stroke-linejoin="round"/>
    <path fill-rule="evenodd" clip-rule="evenodd" d="M21 9.75403C21 17.654 14.068 22.085 12.371 23.054C12.1408 23.1855 11.8582 23.1855 11.628 23.054C9.931 22.084 3 17.652 3 9.75403C3 4.78347 7.02944 0.754028 12 0.754028C16.9706 0.754028 21 4.78347 21 9.75403V9.75403Z" stroke="black" stroke-width="1.5" stroke-linecap="round" stroke-linejoin="round"/>
    </svg>
