<svg width="24" height="24" viewBox="0 0 24 24" fill="none" xmlns="http://www.w3.org/2000/svg">
<path fill-rule="evenodd" clip-rule="evenodd" d="M16.307 2.83796C15.9494 2.69496 15.5506 2.69496 15.193 2.83796L8.80701 5.39296C8.44944 5.53596 8.05058 5.53596 7.69301 5.39296L1.77901 3.02696C1.54729 2.9341 1.28456 2.96261 1.07815 3.10302C0.871749 3.24343 0.748735 3.47733 0.75001 3.72696V18.1C0.749907 18.7134 1.12339 19.2652 1.69301 19.493L7.69301 21.893C8.05058 22.036 8.44944 22.036 8.80701 21.893L15.193 19.338C15.5506 19.195 15.9494 19.195 16.307 19.338L22.221 21.7C22.4527 21.7928 22.7155 21.7643 22.9219 21.6239C23.1283 21.4835 23.2513 21.2496 23.25 21V6.63096C23.2501 6.01748 22.8766 5.46577 22.307 5.23796L16.307 2.83796Z" stroke="#D4D4D4" stroke-width="1.5" stroke-linecap="round" stroke-linejoin="round"/>
<path d="M8.25 5.5V22" stroke="#D4D4D4" stroke-width="1.5" stroke-linecap="round" stroke-linejoin="round"/>
<path d="M15.75 2.73096V19.231" stroke="#D4D4D4" stroke-width="1.5" stroke-linecap="round" stroke-linejoin="round"/>
</svg>
