<svg width="59" height="32" viewBox="0 0 59 32" fill="none" xmlns="http://www.w3.org/2000/svg">
    <path d="M13.5909 8.6438C11.0898 8.6438 9.12196 10.0783 9.12196 12.3771C9.12196 14.7128 10.7036 15.6323 13.3702 16.2208L13.5358 16.2576C15.2277 16.6254 16.184 16.9932 16.184 18.1151C16.184 19.0714 15.4484 19.899 13.8852 19.899C11.9358 19.899 11.0346 18.8323 11.0346 17.2507V16.9197H8.6438V17.3243C8.6438 20.3404 10.6668 22.0323 13.8116 22.0323C16.5518 22.0323 18.5748 20.5794 18.5748 17.9863C18.5748 15.6507 17.0116 14.7128 14.3633 14.1243L14.1978 14.0875C12.653 13.7381 11.5128 13.5174 11.5128 12.3036C11.5128 11.4208 12.3036 10.7771 13.5909 10.7771C15.0622 10.7771 16.0001 11.4208 16.0001 12.8921V13.2783H18.3541V12.7266C18.3541 10.1518 16.3495 8.6438 13.5909 8.6438Z" fill="#111111"/>
    <path d="M19.7062 17.2139C19.7062 20.0461 21.8027 22.0323 24.451 22.0323C27.0073 22.0323 28.6073 20.6162 29.0487 18.5381L26.7682 17.9679C26.5291 19.1633 25.8855 19.9725 24.4878 19.9725C22.9981 19.9725 22.0234 18.8691 22.0234 17.2139C22.0234 15.5587 23.0901 14.4553 24.4878 14.4553C25.8855 14.4553 26.6027 15.3748 26.7682 16.4783L29.0487 15.8898C28.5705 13.8116 26.9889 12.3955 24.451 12.3955C21.8027 12.3955 19.7062 14.3817 19.7062 17.2139Z" fill="#111111"/>
    <path d="M29.9253 17.2139C29.9253 20.0829 32.0218 22.0323 34.7069 22.0323C37.3919 22.0323 39.4885 20.0829 39.4885 17.2139C39.4885 14.3449 37.3919 12.3955 34.7069 12.3955C32.0218 12.3955 29.9253 14.3449 29.9253 17.2139ZM32.2425 17.2139C32.2425 15.5587 33.2356 14.4553 34.7069 14.4553C36.1781 14.4553 37.1712 15.5587 37.1712 17.2139C37.1712 18.8691 36.1781 19.9725 34.7069 19.9725C33.2356 19.9725 32.2425 18.8691 32.2425 17.2139Z" fill="#111111"/>
    <path d="M49.8658 21.7748V12.653H47.5485V17.361C47.5485 18.9794 46.7577 19.899 45.2681 19.899C43.9439 19.899 43.2083 19.1449 43.2083 17.876V12.653H40.8911V18.0967C40.8911 20.4691 42.4175 21.922 44.4405 21.922C46.1141 21.922 46.96 21.1495 47.3279 20.3036H47.5853V21.7748H49.8658Z" fill="#111111"/>
    <path d="M50.9646 12.653V14.6392H53.2819V20.0093C53.2819 21.0392 54.0543 21.7748 55.0842 21.7748H57.5853V19.7886H56.1141C55.783 19.7886 55.5991 19.6047 55.5991 19.2369V14.6392H58.1003V12.653H55.5991V9.82081H53.2819V12.653H50.9646Z" fill="#111111"/>
    <path fill-rule="evenodd" clip-rule="evenodd" d="M0 0H58.1149V2.02299H2.02299V29.977H58.1149V32H0V0Z" fill="#111111"/>
    </svg>
