<svg width="51" height="28" viewBox="0 0 51 28" fill="none" xmlns="http://www.w3.org/2000/svg">
    <path d="M11.8922 7.56299C9.70371 7.56299 7.98187 8.81816 7.98187 10.8297C7.98187 12.8733 9.36577 13.6779 11.6991 14.1929L11.8439 14.2251C13.3244 14.5469 14.1612 14.8687 14.1612 15.8503C14.1612 16.6871 13.5175 17.4113 12.1497 17.4113C10.4439 17.4113 9.65543 16.4779 9.65543 15.094V14.8044H7.56348V15.1584C7.56348 17.7975 9.33359 19.2779 12.0853 19.2779C14.483 19.2779 16.2531 18.0067 16.2531 15.7377C16.2531 13.694 14.8853 12.8733 12.5681 12.3584L12.4232 12.3262C11.0715 12.0205 10.0738 11.8274 10.0738 10.7653C10.0738 9.99287 10.7658 9.42966 11.8922 9.42966C13.1796 9.42966 14.0003 9.99287 14.0003 11.2802V11.6182H16.06V11.1354C16.06 8.88253 14.306 7.56299 11.8922 7.56299Z" fill="white"/>
    <path d="M17.243 15.0618C17.243 17.54 19.0775 19.2779 21.3948 19.2779C23.6315 19.2779 25.0315 18.0389 25.4177 16.2205L23.4223 15.7216C23.2132 16.7676 22.6499 17.4756 21.4269 17.4756C20.1235 17.4756 19.2706 16.5101 19.2706 15.0618C19.2706 13.6136 20.204 12.648 21.4269 12.648C22.6499 12.648 23.2775 13.4526 23.4223 14.4182L25.4177 13.9032C24.9994 12.0848 23.6155 10.8457 21.3948 10.8457C19.0775 10.8457 17.243 12.5837 17.243 15.0618Z" fill="white"/>
    <path d="M26.1848 15.0618C26.1848 17.5722 28.0192 19.2779 30.3687 19.2779C32.7181 19.2779 34.5526 17.5722 34.5526 15.0618C34.5526 12.5515 32.7181 10.8457 30.3687 10.8457C28.0192 10.8457 26.1848 12.5515 26.1848 15.0618ZM28.2123 15.0618C28.2123 13.6136 29.0813 12.648 30.3687 12.648C31.656 12.648 32.525 13.6136 32.525 15.0618C32.525 16.5101 31.656 17.4756 30.3687 17.4756C29.0813 17.4756 28.2123 16.5101 28.2123 15.0618Z" fill="white"/>
    <path d="M43.6327 19.0526V11.071H41.6051V15.1906C41.6051 16.6067 40.9132 17.4113 39.6097 17.4113C38.4511 17.4113 37.8074 16.7515 37.8074 15.6411V11.071H35.7798V15.8343C35.7798 17.9101 37.1155 19.1814 38.8856 19.1814C40.35 19.1814 41.0902 18.5055 41.412 17.7653H41.6373V19.0526H43.6327Z" fill="white"/>
    <path d="M44.5942 11.071V12.809H46.6218V17.5078C46.6218 18.409 47.2977 19.0526 48.1988 19.0526H50.3873V17.3147H49.1C48.8103 17.3147 48.6494 17.1538 48.6494 16.832V12.809H50.8379V11.071H48.6494V8.59287H46.6218V11.071H44.5942Z" fill="white"/>
    <path fill-rule="evenodd" clip-rule="evenodd" d="M0 0H50.8506V1.77012H1.77011V26.2299H50.8506V28H0V0Z" fill="white"/>
    </svg>
