<svg width="24" height="24" viewBox="0 0 24 24" fill="none" xmlns="http://www.w3.org/2000/svg">
<path d="M21.6838 9.39C21.5918 9.72762 21.4047 10.0317 21.1448 10.266L20.1728 11.144C19.7888 11.4906 19.5696 11.9837 19.5696 12.501C19.5696 13.0183 19.7888 13.5114 20.1728 13.858L21.1448 14.736C21.7195 15.2543 21.9055 16.0783 21.6092 16.7933C21.313 17.5082 20.5986 17.9591 19.8258 17.919L18.5178 17.852C18.0014 17.8259 17.498 18.0197 17.1325 18.3854C16.7669 18.7511 16.5734 19.2546 16.5998 19.771L16.6668 21.079C16.7083 21.8527 16.2576 22.5685 15.5419 22.8655C14.8263 23.1624 14.0012 22.9759 13.4828 22.4L12.6048 21.428C12.2582 21.044 11.7651 20.8248 11.2478 20.8248C10.7305 20.8248 10.2374 21.044 9.89078 21.428L9.01278 22.4C8.49425 22.975 7.66967 23.161 6.95451 22.8642C6.23935 22.5674 5.78877 21.8522 5.82978 21.079L5.89978 19.771C5.92621 19.2544 5.73253 18.7508 5.36676 18.385C5.00099 18.0193 4.49738 17.8256 3.98078 17.852L2.67278 17.919C1.89994 17.9591 1.18559 17.5082 0.889331 16.7933C0.593071 16.0783 0.779104 15.2543 1.35378 14.736L2.32578 13.858C2.7098 13.5114 2.92898 13.0183 2.92898 12.501C2.92898 11.9837 2.7098 11.4906 2.32578 11.144L1.35378 10.266C0.779639 9.74804 0.593504 8.92486 0.888948 8.21027C1.18439 7.49568 1.8975 7.04429 2.66978 7.083L3.97778 7.15C4.49489 7.17731 4.99931 6.98402 5.36576 6.61815C5.7322 6.25227 5.92628 5.74815 5.89978 5.231L5.82978 3.923C5.78784 3.14941 6.2381 2.4334 6.95349 2.13605C7.66888 1.8387 8.49402 2.0246 9.01278 2.6L9.89078 3.572C10.2371 3.9566 10.7303 4.17619 11.2478 4.17619C11.7653 4.17619 12.2585 3.9566 12.6048 3.572L13.4828 2.6C14.0023 2.02727 14.8258 1.84311 15.5398 2.14" stroke="white" stroke-width="1.5" stroke-linecap="round" stroke-linejoin="round"/>
<path d="M7.59961 10.641L10.1126 13.992C10.387 14.3576 10.8132 14.5782 11.2702 14.591C11.7272 14.6039 12.1651 14.4076 12.4596 14.058L23.2476 1.25098" stroke="white" stroke-width="1.5" stroke-linecap="round" stroke-linejoin="round"/>
</svg>
